<?xml version="1.0" encoding="UTF-8"?>
<svg width="120" height="32" viewBox="0 0 120 32" fill="none" xmlns="http://www.w3.org/2000/svg">
  <path d="M14.5 8C10.3579 8 7 11.3579 7 15.5C7 19.6421 10.3579 23 14.5 23C18.6421 23 22 19.6421 22 15.5C22 11.3579 18.6421 8 14.5 8ZM14.5 21C11.4624 21 9 18.5376 9 15.5C9 12.4624 11.4624 10 14.5 10C17.5376 10 20 12.4624 20 15.5C20 18.5376 17.5376 21 14.5 21Z" fill="#511CC4"/>
  <path d="M35.5 8.5V23H33.5V8.5H35.5Z" fill="#511CC4"/>
  <path d="M48.5 8.5V23H46.5V8.5H48.5Z" fill="#511CC4"/>
  <path d="M61.5 8.5V23H59.5V8.5H61.5Z" fill="#511CC4"/>
  <path d="M74.5 8.5V23H72.5V8.5H74.5Z" fill="#511CC4"/>
  <path d="M87.5 8.5V23H85.5V8.5H87.5Z" fill="#511CC4"/>
  <path d="M100.5 8.5V23H98.5V8.5H100.5Z" fill="#511CC4"/>
  <path d="M113.5 8.5V23H111.5V8.5H113.5Z" fill="#511CC4"/>
</svg>